<?xml version="1.0" standalone="no"?><!DOCTYPE svg PUBLIC "-//W3C//DTD SVG 1.1//EN" "http://www.w3.org/Graphics/SVG/1.1/DTD/svg11.dtd"><svg t="1650284008462" class="icon" viewBox="0 0 1024 1024" version="1.1" xmlns="http://www.w3.org/2000/svg" p-id="2591" xmlns:xlink="http://www.w3.org/1999/xlink" width="200" height="200"><defs><style type="text/css">@font-face { font-family: feedback-iconfont; src: url("//at.alicdn.com/t/font_1031158_u69w8yhxdu.woff2?t=1630033759944") format("woff2"), url("//at.alicdn.com/t/font_1031158_u69w8yhxdu.woff?t=1630033759944") format("woff"), url("//at.alicdn.com/t/font_1031158_u69w8yhxdu.ttf?t=1630033759944") format("truetype"); }
</style></defs><path d="M742.218667 526.666667c107.637333 0 194.848 87.573333 194.848 195.552V725.333333c0 103.168-93.578667 190.4-190.4 190.4h-45.44a30.4 30.4 0 0 1-2.517334-0.106666c-153.898667-12.778667-312.266667-80.128-411.914666-173.888C169.184 631.082667 86.933333 461.44 86.933333 303.818667c0-113.802667 84.405333-195.552 194.848-195.552 107.626667 0 194.837333 87.573333 194.837334 195.552 0 76.032-44.181333 138.773333-111.701334 169.12a507.658667 507.658667 0 0 0 81.6 100.266666c36.288 34.453333 76.544 62.336 118.752 81.813334 26.304-76.170667 94.186667-128.352 176.96-128.352z" p-id="2592" fill="#d81e06"></path></svg>